<?xml version="1.0" standalone="no"?><!DOCTYPE svg PUBLIC "-//W3C//DTD SVG 1.1//EN" "http://www.w3.org/Graphics/SVG/1.1/DTD/svg11.dtd"><svg t="1587091551953" class="icon" viewBox="0 0 1024 1024" version="1.1" xmlns="http://www.w3.org/2000/svg" p-id="11012" xmlns:xlink="http://www.w3.org/1999/xlink" width="16" height="16"><defs><style type="text/css"></style></defs><path d="M591.035178 511.689697l416.661015-416.807212a54.604523 54.604523 0 0 0 0-76.753345l-2.192953-2.339149a54.531424 54.531424 0 0 0-76.753345 0l-416.734114 417.391999-416.661015-417.391999a54.531424 54.531424 0 0 0-76.753345 0l-2.339149 2.192952a53.581145 53.581145 0 0 0 0 76.753345L432.996385 511.689697l-416.661015 416.807212a54.604523 54.604523 0 0 0 0 76.753345l2.192953 2.33915c21.34474 21.052346 55.554802 21.052346 76.753345 0l416.661015-416.880311 416.734114 416.880311c21.271641 21.052346 55.554802 21.052346 76.753345 0l2.192952-2.192953a54.604523 54.604523 0 0 0 0-76.753345L591.181374 511.689697z" fill="#CCCCCC" p-id="11013"></path></svg>