<?xml version="1.0" standalone="no"?>
<!DOCTYPE svg PUBLIC "-//W3C//DTD SVG 1.1//EN" "http://www.w3.org/Graphics/SVG/1.1/DTD/svg11.dtd" >

<svg>
<metadata>
Created by webfont
</metadata>
<defs>

<font id="AliHYAiHei" horiz-adv-x="1182" vert-adv-y="1182" >
  <font-face
    
    font-family="AliHYAiHei"
    
    font-weight="400"
    
    font-stretch="normal"
    
    units-per-em="1000"
    
    ascent="1001"
    
    descent="-326"
    
  />
    <missing-glyph />
    
    <glyph glyph-name="uni30" unicode="&#x30;" d="M679 765Q695 560 695 360Q695 159 679-80L90-80Q75 142 75 360Q75 574 90 765L679 765M477-10Q486 190 486 367Q486 544 477 695L292 695Q284 527 284 365Q284 204 292-10L477-10Z"  horiz-adv-x="770" vert-adv-y="1000"  />

    
    <glyph glyph-name="uni31" unicode="&#x31;" d="M306 765L306-80L104-80L104 695L30 679L30 743L110 765L306 765Z"  horiz-adv-x="386" vert-adv-y="1000"  />

    
    <glyph glyph-name="uni32" unicode="&#x32;" d="M630 765Q644 642 644 546Q644 449 630 314L262 314L262-10L638-10L638-80L60-80L60 384L428 384Q437 441 437 545Q437 630 428 695L68 695L68 765L630 765Z"  horiz-adv-x="698" vert-adv-y="1000"  />

    
    <glyph glyph-name="uni33" unicode="&#x33;" d="M639 159Q640 146 640 121Q640 31 621-80L40-80L40-10L419-10Q432 58 432 138Q432 235 413 318L110 318L110 386L409 386Q417 471 417 557Q415 648 405 695L50 695L50 765L603 765Q625 655 625 555Q625 456 607 352Q634 254 639 159Z"  horiz-adv-x="714" vert-adv-y="1000"  />

    
    <glyph glyph-name="uni34" unicode="&#x34;" d="M468 765L670 765L670-80L468-80L468 213L238 163L40 163L40 765L242 765L242 233L468 283L468 765Z"  horiz-adv-x="750" vert-adv-y="1000"  />

    
    <glyph glyph-name="uni35" unicode="&#x35;" d="M630 765L630 695L270 695L270 384L636 384Q650 264 650 164Q650 65 636-80L60-80L60-10L436-10Q444 72 444 160Q444 250 436 314L68 314L68 765L630 765Z"  horiz-adv-x="705" vert-adv-y="1000"  />

    
    <glyph glyph-name="uni36" unicode="&#x36;" d="M282 387L514 437L704 437Q723 312 723 196Q723 61 702-80L80-80L80 765L700 765L700 695L282 695L282 387M508-10Q519 71 519 190Q519 299 508 367L282 317L282-10L508-10Z"  horiz-adv-x="777" vert-adv-y="1000"  />

    
    <glyph glyph-name="uni37" unicode="&#x37;" d="M635 765L635 701L325-80L123-80L433 695L5 695L5 765L635 765Z"  horiz-adv-x="640" vert-adv-y="1000"  />

    
    <glyph glyph-name="uni38" unicode="&#x38;" d="M691 158Q691 51 669-80L95-80Q75 39 75 143Q75 259 98 352Q80 465 80 555Q80 665 102 765L666 765Q688 651 689 569Q689 470 670 352Q691 267 691 158M290 695Q279 645 279 557Q279 471 287 386L481 386Q489 471 489 557Q489 645 478 695L290 695M481-10Q494 81 494 162Q494 247 483 318L285 318Q274 247 274 162Q274 81 287-10L481-10Z"  horiz-adv-x="766" vert-adv-y="1000"  />

    
    <glyph glyph-name="uni39" unicode="&#x39;" d="M513 305L281 255L93 255Q75 431 75 533Q75 654 91 765L715 765L715-80L85-80L85-10L513-10L513 305M287 695Q278 628 278 504Q278 382 287 325L513 375L513 695L287 695Z"  horiz-adv-x="795" vert-adv-y="1000"  />

    
    <glyph glyph-name="uni4E00" unicode="&#x4E00;" d="M954 465L954 377L46 377L46 465L954 465Z"  horiz-adv-x="1000" vert-adv-y="1000"  />

    
    <glyph glyph-name="uni4E0A" unicode="&#x4E0A;" d="M550 806L552 536L913 539L913 465L555 459L550-31L943-33L945-103L61-103L61-33L372-31L372 809L550 806Z"  horiz-adv-x="1000" vert-adv-y="1000"  />

    
    <glyph glyph-name="uni4EA7" unicode="&#x4EA7;" d="M613 808L627 756L937 755L938 685L82 687L79 753L390 755L377 808L613 808M403 663Q426 607 439 568.50Q452 530 460 496L571 496Q602 579 618 661L809 660Q793 587 760 496L940 496L940 430L308 428Q307 331 301 165.50Q295 0 272-105L68-105Q75-68 83-33Q91 2 104 131Q117 260 112 494L267 494Q252 545 237.50 581Q223 617 200 661L403 663Z"  horiz-adv-x="1000" vert-adv-y="1000"  />

    
    <glyph glyph-name="uni4EAE" unicode="&#x4EAE;" d="M938 364L941 198L794 198L795-49L879-48L889 56L948 54L931-105L608-106L607 181L385 181Q387 25 322-110L106-107Q157-42 177 34Q195 98 201 203L62 203L62 366L938 364M880 656L880 412L132 412L132 655L880 656M615 765L949 765L949 696L51 696L51 765L385 765L371 814L601 814L615 765M340 473L680 473L680 586L342 586L340 473M235 241L772 241L772 303L235 303L235 241Z"  horiz-adv-x="1000" vert-adv-y="1000"  />

    
    <glyph glyph-name="uni4F53" unicode="&#x4F53;" d="M321 818Q305 706 290.50 633Q276 560 280-108L101-108L101 369L39 370Q96 560 141 815L321 818M560 804L705 804L705 701L946 699L946 625L705 623L707 150L770 150L770 85L707 85L707-103L552-103L552 83L492 83L492 148L556 148L563 620L315 623L313 694L560 696L560 804M728 594L853 594Q865 479 885 328.50Q905 178 958-89L820-89Q751 262 728 594M521 593Q518 516 512.50 460.50Q507 405 500.50 349Q494 293 483.50 191Q473 89 444-96L300-96Q349 203 362.50 310.50Q376 418 392 593L521 593Z"  horiz-adv-x="1000" vert-adv-y="1000"  />

    
    <glyph glyph-name="uni515A" unicode="&#x515A;" d="M868 507L868 181L733 178L735-43L870-42L881 78L945 76L934-107L532-107L534 178L452 178Q431 82 399 4.50Q367-73 343-112L109-108Q220 52 250 181L127 184L131 509L868 507M597 810Q597 759 596 700L674 703L703 802L878 798Q867 738 854 703L938 698L941 543L740 545L739 642L261 642L262 549L69 549L76 703L155 702L132 802L311 801Q324 751 336 703L399 703L401 807L597 810M334 441L332 239L669 239L669 441L334 441Z"  horiz-adv-x="1000" vert-adv-y="1000"  />

    
    <glyph glyph-name="uni5168" unicode="&#x5168;" d="M912 512L912 448L611 448L611 235L900 235L897 170L611 170L611-41L938-41L938-108L62-108L62-41L398-41L398 170L101 170L101 235L398 235L398 448L93 448L93 512L912 512M320 810L691 810L973 548L706 548L502 743L303 548L29 548L320 810Z"  horiz-adv-x="1000" vert-adv-y="1000"  />

    
    <glyph glyph-name="uni516C" unicode="&#x516C;" d="M561 453Q545 377 503.50 279.50Q462 182 422.50 105.50Q383 29 347-35Q600-38 682-35Q672 6 623.50 119.50Q575 233 555 288L553 298L738 293Q766 231 787.50 178.50Q809 126 850.50 27.50Q892-71 907-102L897-103Q502-107 112-100L112-32Q165 42 201 101Q237 160 274.50 227.50Q312 295 337.50 355.50Q363 416 379 453L561 453M269 802Q368 805 472 797Q385 560 258 348Q151 344 45 350Q163 573 269 802M738 794Q745 784 751.50 770Q758 756 779 712.50Q800 669 961 361Q851 358 748 364Q707 432 662.50 519Q618 606 592 662.50Q566 719 533 797L738 794Z"  horiz-adv-x="1000" vert-adv-y="1000"  />

    
    <glyph glyph-name="uni51B5" unicode="&#x51B5;" d="M306 795L917 793L915 326L836 325L837-39L899-37L909 106L961 103L954-106L640-102L640 327L578 325Q549 85 484-101L276-98Q368 125 387 326L308 329L306 795M505 726L498 397L719 394L721 723L505 726M214 809Q242 669 278 455L101 455L51 802L214 809M282 407Q259 171 219-108L44-104Q71 62 86.50 188.50Q102 315 110 410L282 407Z"  horiz-adv-x="1000" vert-adv-y="1000"  />

    
    <glyph glyph-name="uni5206" unicode="&#x5206;" d="M95 457Q496 451 884 454L884-104Q801-105 760-105.50Q719-106 704-106Q613-83 581.50-73Q550-63 528.50-56.50Q507-50 458-35L466 26Q590-2 631-15Q672-28 690-32Q692 173 698 388L494 388Q455 194 424 108.50Q393 23 379.50-9.50Q366-42 323-111Q297-114 278-114Q259-114 217.50-112.50Q176-111 82-109Q87-101 134-31Q181 39 216 113.50Q251 188 270.50 253.50Q290 319 302 388L95 388L95 457M279 807Q380 807 481 812Q413 630 308 483L59 483Q129 579 151.50 611.50Q174 644 200.50 682Q227 720 279 807M737 807Q828 648 946 485Q781 483 721 488Q657 576 624 631.50Q591 687 531 807L737 807Z"  horiz-adv-x="1000" vert-adv-y="1000"  />

    
    <glyph glyph-name="uni5316" unicode="&#x5316;" d="M664 807L661 462Q677 462 736.50 495Q796 528 931 597Q971 550 971 545Q783 441 746 422.50Q709 404 695.50 397.50Q682 391 664 378Q656 167 667-35Q761-41 854-32Q859 61 867 157L921 152L933 140L919-101L466-104Q463 204 468 314Q411 296 354 276Q349 278 348 292.50Q347 307 347 336L468 384L468 406Q468 416 465.50 606.50Q463 797 464.50 802Q466 807 471 810L664 807M362 810L313 562L316-104L117-104L122 384L57 386Q54 392 107.50 581Q161 770 172 813L362 810Z"  horiz-adv-x="1000" vert-adv-y="1000"  />

    
    <glyph glyph-name="uni53F0" unicode="&#x53F0;" d="M490 813L319 498L698 498L571 772L757 772L930 416L83 416L83 486L286 813L490 813M886 355L884-105L119-105L121 360L886 355M317 291L317-41L684-41L684 291L317 291Z"  horiz-adv-x="1000" vert-adv-y="1000"  />

    
    <glyph glyph-name="uni5404" unicode="&#x5404;" d="M272 807L483 804L452 761L886 756L887 698Q775 588 655 499L640 489Q783 414 817.50 395.50Q852 377 935 333L612 333L591 344L490 404Q476 394 441.50 372Q407 350 364 330L41 330Q108 364 211.50 411Q315 458 359 485Q259 531 167 591L127 612L389 616Q476 559 483 557L643 693L402 693L346 638L76 638Q125 674 139 687Q153 700 272 807M868 305L868-95L137-98L132 305L868 305M336 237L336-33L674-30L674 240L336 237Z"  horiz-adv-x="1000" vert-adv-y="1000"  />

    
    <glyph glyph-name="uni5408" unicode="&#x5408;" d="M46 505Q127 579 200 663Q260 733 311 810L689 810Q816 650 954 505L668 505Q577 611 505 726Q435 609 340 505L46 505M120 461L120 392L881 392L881 461L120 461M125 349L125-102L876-102L876 349L125 349M329-34L329 281L672 281L672-34L329-34Z"  horiz-adv-x="1000" vert-adv-y="1000"  />

    
    <glyph glyph-name="uni5B89" unicode="&#x5B89;" d="M595 808L613 759L948 756L951 543L746 541L748 688L253 688L251 540L56 540L56 761L375 761L359 808L595 808M530 619L472 476L969 476L969 400L853 397Q808 314 649 119Q795 8 934-105L669-102Q573-26 514 15Q448-46 381-102L85-105Q268 14 375 106L157 240L243 399L56 403L55 478L271 476L339 619L530 619M446 398L382 283L492 214Q580 303 639 398L446 398Z"  horiz-adv-x="1000" vert-adv-y="1000"  />

    
    <glyph glyph-name="uni5B9E" unicode="&#x5B9E;" d="M443 637L639 637Q624 404 611 350.50Q598 297 583 258L940 259L940 194Q835 195 686 194L891-105L657-105Q637-75 627-56.50Q617-38 520 113Q497 77 480 50Q463 23 355-105L89-108Q252 44 345 195L54 194L55 262L377 261Q440 415 443 637M725 695L274 695L274 614L64 614L64 760L374 760Q371 776 356 815L610 815L632 760L933 760L933 542L725 542L725 695M79 436Q275 437 283 435L369 292L352 293L157 292Q128 357 116 376.50Q104 396 79 436M112 592L317 593Q327 577 343.50 552Q360 527 391 459Q313 460 268 460L210 460Q197 460 180 459L116 581L112 592Z"  horiz-adv-x="1000" vert-adv-y="1000"  />

    
    <glyph glyph-name="uni5C55" unicode="&#x5C55;" d="M801 112Q840 149 879 197L937 135Q893 82 848 36L944-107L742-109Q638 55 555 234L498 234L502-37L616 28L631-37L522-105L340-101L341 233L276 233Q261 87 251 13.50Q241-60 233-104L42-104Q58-32 66 10Q74 52 86.50 165.50Q99 279 107 791L891 788L891 555L284 555L284 464L372 466L372 516L524 516L524 467L642 467L642 522L799 522L798 469L908 469L909 408L801 406L800 303L937 303L937 238L732 236Q758 181 801 112M284 722L284 621L722 621L723 724L284 722M281 403L279 299L372 299L372 404L281 403M524 404L524 299L642 300L642 404L524 404Z"  horiz-adv-x="1000" vert-adv-y="1000"  />

    
    <glyph glyph-name="uni5DE5" unicode="&#x5DE5;" d="M911 774L911 696L603 696L605-32L951-29L951-98L57-98L57-35L401-32L401 702L93 702L93 774L911 774Z"  horiz-adv-x="1000" vert-adv-y="1000"  />

    
    <glyph glyph-name="uni5E73" unicode="&#x5E73;" d="M937 789L937 727L600 727L600 227L947 227L947 162L600 162L600-111L400-111L400 162L57 162L57 227L400 227L400 727L67 727L67 789L937 789M297 687Q314 582 337 425L361 269L176 269L117 687L297 687M885 688Q872 582 866 534.50Q860 487 831 269L648 269Q661 334 673 387.50Q685 441 691 492.50Q697 544 715 688L885 688Z"  horiz-adv-x="1000" vert-adv-y="1000"  />

    
    <glyph glyph-name="uni5E74" unicode="&#x5E74;" d="M372 807L362 755L952 755L952 683L669 679L669 488L936 488L936 412L669 412L668 164L965 167L965 95L669 92L669-109L473-109L473 92L49 92L49 167L136 169L136 488L467 488L475 680L338 683L273 527L43 527Q132 698 171 810L372 807M329 412L322 167L470 167L470 412L329 412Z"  horiz-adv-x="1000" vert-adv-y="1000"  />

    
    <glyph glyph-name="uni5EA6" unicode="&#x5EA6;" d="M661 815L673 773L949 771L952 709L269 707Q280 317 273.50 208.50Q267 100 261 50Q255 0 238-102L40-102Q53-59 60-31Q67-3 82.50 135Q98 273 93 773L435 775L433 815L661 815M915 316L915 251Q819 128 724 48Q805-33 927-115L690-114Q640-72 606-38Q566-69 513-110Q402-110 282-107Q407-25 497 53Q388 155 370.50 175Q353 195 323 230L516 232Q554 191 603 145Q662 191 717 255L314 255L315 315L915 316M392 679L536 679L536 588L677 588L677 679L845 679Q846 612 846 608L846 588L949 588L949 527L848 527L846 358L367 356L367 527L281 527L281 588L367 588L368 676L389 681L392 679M536 527L536 412L677 412L677 527L536 527Z"  horiz-adv-x="1000" vert-adv-y="1000"  />

    
    <glyph glyph-name="uni5EFA" unicode="&#x5EFA;" d="M686 810L686 767L910 767L910 610L964 610L964 542L910 542L910 382L686 382L686 299L930 299L930 239L686 239L686 148L948 148L948 89L686 89L686 9L513 9L513 89L346 89L346 148L513 148L513 239L365 239L365 299L513 299L513 382L380 382L380 444L513 444L513 542L353 542L353 610L513 610L513 699L380 699L380 767L513 767L513 810L686 810M344 729Q320 668 300 627Q280 586 221 486L360 486Q360 437 355 403.50Q350 370 333.50 299Q317 228 301 172.50Q285 117 266 66Q296 22 324-3.50Q352-29 423.50-30.50Q495-32 959-32L959-109Q419-109 371.50-108Q324-107 295.50-94Q267-81 254.50-67.50Q242-54 225-32Q213-70 196-110L25-110Q45-54 67-18.50Q89 17 128 147Q101 217 87.50 255Q74 293 45 391L143 391Q157 345 174 292Q189 351 192.50 369Q196 387 204 428L63 428L63 486L82 527Q123 597 179 719L48 719L48 781L344 781L344 729M686 542L686 444L751 444L751 542L686 542M686 699L686 610L751 610L751 699L686 699Z"  horiz-adv-x="1000" vert-adv-y="1000"  />

    
    <glyph glyph-name="uni603B" unicode="&#x603B;" d="M798 810Q786 761 768 714L884 713Q885 507 884 290L109 291L108 713L231 713Q215 755 199 807L409 807Q424 759 441 713L557 713Q576 760 590 812L798 810M304 642L302 358L688 359L688 641L304 642M469 247L468-47L680-47L698 66L751 67L740-108L288-107L286 249L469 247M262 243Q250 81 223-107L50-107Q83 79 100 244L262 243M899 245Q926 100 948-109L784-109Q764 98 737 245L899 245M650 250Q668 145 678 18L515 18Q508 140 490 250L650 250Z"  horiz-adv-x="1000" vert-adv-y="1000"  />

    
    <glyph glyph-name="uni60A3" unicode="&#x60A3;" d="M579 811L579 768L897 768L900 537L579 537L579 478L924 478L918 247L579 247L579 208L404 208L404 247L73 247L73 478L404 478L404 537L95 537L95 768L404 768L404 811L579 811M461 176L461-44L690-44Q695 0 699 49L747 49Q747-15 736-116L279-116Q276-31 276 176L461 176M739 176L910 176L925 79Q941-17 946-116L781-116Q776-44 765.50 25.50Q755 95 739 176M256 176Q235 49 217-106L44-106Q73 44 82 176L256 176M649 176Q652 176 663 98Q674 20 675.50 7Q677-6 680-20L520-20Q515-3 492 176L649 176M749 312L749 413L579 413L579 312L749 312M254 415L254 310L404 312L404 415L254 415M579 698L579 604L722 604L719 698L579 698M281 700L281 606L404 606L404 698L281 700Z"  horiz-adv-x="1000" vert-adv-y="1000"  />

    
    <glyph glyph-name="uni62A5" unicode="&#x62A5;" d="M310 808L310 660L366 660L366 598L310 598L310 407L362 422L363 362L310 346L310-107Q211-111 134-104L38-51L46 7L134-36L134 309L34 285L32 342L134 370L134 598L42 598L42 660L134 660L134 808L310 808M918 796L918 460L756 460L636 499L632 567L754 537L754 732L557 732L557 432L930 432L930 376Q895 221 835 106Q861 53 885 13Q909-27 925-56Q941-85 946.50-94.50Q952-104 958-115L795-118L752-50L711-112L389-112L389 794L918 796M557 365L557 347L687 344L734 251L738 259Q758 305 764 323.50Q770 342 775 364L557 365M557 310L557-74L577-51Q618 13 629 34.50Q640 56 661 102Q634 146 608 200Q582 254 574 271Q566 288 557 310Z"  horiz-adv-x="1000" vert-adv-y="1000"  />

    
    <glyph glyph-name="uni62CC" unicode="&#x62CC;" d="M753 807Q751 616 751 431L938 429L940 367L754 364L752 177L957 178L955 115Q879 109 751 110L751-109L576-109L576 109L367 109L371 178L572 178L573 365L386 367L386 432L575 431L572 808L753 807M306 812L306 671L368 671L365 605L306 605L306 407L365 429L370 365L304 344L304-109L131-109L41-59L40 9L121-36L121 304L46 285L43 346L118 363L121 605L47 605L47 671L121 671L121 815L306 812M509 793Q535 642 550 491L422 490Q416 554 404.50 634Q393 714 380 796L509 793M942 788Q931 688 923 631Q915 574 911.50 549Q908 524 904 490L778 490Q781 529 786.50 553.50Q792 578 798 620Q804 662 818 790L942 788Z"  horiz-adv-x="1000" vert-adv-y="1000"  />

    
    <glyph glyph-name="uni636E" unicode="&#x636E;" d="M948 793L347 793Q347 251 339 123.50Q331-4 327-39Q323-74 313-108L486-108Q494-65 499.50-22.50Q505 20 509.50 112Q514 204 516.50 246.50Q519 289 522 354L650 354L650 258L534 258L534-109Q534-111 951-108L951 258L811 258L811 354L958 354L958 422L811 422L811 517L948 517L948 793M280 804L280 667L339 667L339 603L280 603L280 415L336 432L336 366Q304 354 280 349L280-109L109-109L90-100Q71-91 31-59L31 4Q68-16 108-28L108 304Q65 291 31 281L31 345L53 352Q75 360 108 370L108 603L39 603L36 667L108 667L108 804L280 804M785 730L785 581Q785 580 707 580L516 580L516 730L785 730M678 197L803 197L803-39L678-39L678 197M518 422L518 517L650 517L650 422L518 422Z"  horiz-adv-x="1000" vert-adv-y="1000"  />

    
    <glyph glyph-name="uni63A7" unicode="&#x63A7;" d="M286 809L286 664L335 664L335 602L286 602L289 409L345 424L345 362L286 344L289-109L108-109L40-50L50 11L111-20Q114 234 114 256.50Q114 279 111 307L39 287L34 352Q39 352 114 372Q115 482 116 602L44 602L44 664L114 664L114 809L286 809M937 279L742 279Q739-41 740-41L938-41L938-97L354-97L354-41L563-41L563 279L374 279L374 332L937 340L937 279M755 760L949 760L949 603L758 603L758 696L547 696L547 598L352 598L352 756L537 756L522 812L737 812L755 760M627 577Q627 572 611 519Q595 466 554 379L362 379Q386 422 405.50 462.50Q425 503 453 579L627 577M836 579Q884 486 931 391L749 391Q711 483 666 577L836 579Z"  horiz-adv-x="1000" vert-adv-y="1000"  />

    
    <glyph glyph-name="uni6570" unicode="&#x6570;" d="M305 340L296 305L526 305L526 246Q483 140 412 45Q471-12 523-79Q607 37 664 162Q605 317 575 495L527 495Q565 654 577 813L727 813L720 756L968 756L968 690L933 690Q917 375 833 144Q901 3 979-106L798-106Q775-69 753-31Q731-70 706-106L354-106Q335-84 317-64Q296-85 273-106L42-106Q142-39 221 38Q157 101 110 134Q130 194 143 246L55 246L55 305L156 305Q159 323 162 340L305 340M384 809L384 631L520 631L520 579L384 579L384 364L225 364L225 579L66 579L66 631L225 631L225 809L384 809M200 548Q192 447 171 359L39 359Q74 451 82 548L200 548M508 548L549 359L430 359Q419 463 397 548L508 548M92 649L66 799L190 799L213 649L92 649M714 690Q685 555 740 376Q779 527 784 690L714 690M420 649Q432 726 434 799L537 799L526 649L420 649M259 172Q284 154 308 135Q350 188 384 246L280 246Q270 208 259 172Z"  horiz-adv-x="1000" vert-adv-y="1000"  />

    
    <glyph glyph-name="uni65E5" unicode="&#x65E5;" d="M863 785L863-90Q544-92 133-95L133 788L863 785M353 319L351-23Q639-23 641.50-21.50Q644-20 649-18L649 322L368 322L353 319M366 721L346 717L351 394L646 394L646 719L368 719L366 721Z"  horiz-adv-x="1000" vert-adv-y="1000"  />

    
    <glyph glyph-name="uni65F6" unicode="&#x65F6;" d="M422 784L422-85L73-85L73 784L422 784M887 811L887 706L959 706L959 639L887 639L887-103L720-103L525-23L526 51L712-18L712 639L447 639L447 706L712 706L712 811L887 811M633 580Q652 475 662 351Q672 227 675 94L538 94Q535 163 518.50 345Q502 527 493 580L633 580M226 362L226 0L282 0L282 362L226 362M226 721L226 415L282 415L282 721L226 721Z"  horiz-adv-x="1000" vert-adv-y="1000"  />

    
    <glyph glyph-name="uni6708" unicode="&#x6708;" d="M871 788Q876 61 873.50 11.50Q871-38 871-106L681-106L459-51L459 19Q649-30 669-33L669 195Q487 195 326 192Q314 111 310.50 76.50Q307 42 288-20.50Q269-83 265-89.50Q261-96 259-106L42-106Q50-91 55-81.50Q60-72 81.50-13.50Q103 45 121.50 164.50Q140 284 138 789L871 788M338 457L333 266L674 266L677 460L348 460L338 457M343 720L341 528L679 528L677 720L343 720Z"  horiz-adv-x="1000" vert-adv-y="1000"  />

    
    <glyph glyph-name="uni673A" unicode="&#x673A;" d="M339 688L433 688L430 630L339 627L333-103L164-103L163 630L55 630L52 683L163 685L166 807L332 807L339 688M446-12L370-16L362 577L433 578L446-12M136-105L45-108L61 578L137 576L136-105M865 795L867-48L902-48L913 157L966 157L957-101L693-103L693 730L643 732Q641 581 642.50 448Q644 315 634 162.50Q624 10 604-108L427-107Q454-12 465 149Q476 310 473 795L865 795Z"  horiz-adv-x="1000" vert-adv-y="1000"  />

    
    <glyph glyph-name="uni6797" unicode="&#x6797;" d="M810 694L935 694L935 620L810 620L810-100L639-100L639 620L516 620L513 689L639 692L639 810L810 810L810 694M952-100L875-100L852 570L929 572L952-100M613-100L509-100L529 570L616 567L613-100M347 694L474 694L474 623L347 623L355-99L181-99L181 623L58 623L54 694L181 694L181 810L347 810L347 694M471-95L385-95L376 571L462 571L471-95M146-99L42-99Q61 235 71 570L158 570L146-99Z"  horiz-adv-x="1000" vert-adv-y="1000"  />

    
    <glyph glyph-name="uni6842" unicode="&#x6842;" d="M164 808L327 807L328 679L417 679L416 616L330 616L326-108L164-108L159 615L57 618L57 679L164 679L164 808M790 810L792 708L946 709L946 646L784 645L784 489L950 488L950 426L448 421L446 485L602 486L599 650L456 650L456 712L602 711L604 810L790 810M411 561Q425 119 428-100L358-100Q360-49 356.50 124.50Q353 298 349 561L411 561M443-41L602-38L605 178L448 178L448 240L610 240L612 386L790 385L792 237L936 237L939 178L789 178L786-41L955-36L955-98L447-102L443-41M139 561L131-108L44-108Q57 224 67 561L139 561Z"  horiz-adv-x="1000" vert-adv-y="1000"  />

    
    <glyph glyph-name="uni6982" unicode="&#x6982;" d="M604 230Q618 97 633-85Q659 14 672 73Q686 139 699 196Q710 243 727 342L638 342L638 404Q649 570 656 706L747 706Q735 555 724 404L740 404Q758 557 769 732L642 732L642 798L953 798L953 732L902 732Q898 652 894 610Q890 568 884.50 522Q879 476 869 404L957 404L957 342L868 342L860 308L903 308L903-57L917-57L930 107L974 107L960-110L800-110L800 95L758-107L635-105L635-106L528-106Q526-88 525-70Q500-89 480-111L356-111L356 798L633 798L633 257L482 257L482-31L519-3Q508 119 496 230L604 230M260 809L260 695L341 695L341 631L260 631L260-107L123-107L123 631L43 631L43 695L123 695L123 809L260 809M36-107Q51 217 55 599L109 599Q105 279 96-107L36-107M332 600Q340 103 341-106L283-106Q285 135 278 600L332 600M481 733L481 554L518 554L518 733L481 733M481 499L482 318L517 318L517 499L481 499Z"  horiz-adv-x="1000" vert-adv-y="1000"  />

    
    <glyph glyph-name="uni6D4B" unicode="&#x6D4B;" d="M772-54L772-94L663-94L663 794L772 794L772 26L794-4L794 812L929 810Q931-81 930-86Q929-91 925-99Q880-100 819-100Q802-87 772-54M636 799L636 145L534 145Q533 450 531 738L355 738L355 141L261 141L265 799L636 799M509 672Q511 654 511 640L511 244Q511 203 500 108L569 108Q592 49 601.50 21Q611-7 619.50-30Q628-53 645-100L511-101Q488-33 475 10L466-8Q440-60 407-101L239-101Q291-48 306-25.50Q321-3 347.50 61Q374 125 379 184.50Q384 244 380 664L380 672L509 672M244 285L108 288L94 283Q89 210 79 118Q69 26 62.50-3.50Q56-33 49-90Q125-97 205-93Q229 86 236.50 167Q244 248 244 285M208 547L61 547L54 540Q69 443 75.50 392.50Q82 342 82 318Q163 311 247 318Q222 472 208 547M190 807L178 807L47 802Q72 690 87 578L237 580Q236 620 217 704.50Q198 789 190 807Z"  horiz-adv-x="1000" vert-adv-y="1000"  />

    
    <glyph glyph-name="uni6EC7" unicode="&#x6EC7;" d="M708 814L708 773L939 768L938 706L708 707L708 654Q810 654 908 651L897 147L947 147L948 83L298 79L296 141L338 143L334 654L480 654Q538 654 538 656L538 706L293 709L292 770L537 769L538 777L538 814L708 814M303 276Q274 69 231-110L44-107Q57-55 66-18.50Q75 18 92.50 112.50Q110 207 113.50 230.50Q117 254 120 279L303 276M223 810Q267 679 292 573L101 573L46 804L223 810M267 536Q286 446 293 399.50Q300 353 305 312L123 309Q99 422 70 533L267 536M863 58Q904-7 948-106L740-108Q697-26 655 53L861 58L863 58M598 50Q571-22 527-110L309-112Q357-30 389 48Q561 47 598 50M512 462L511 393L722 393L723 462L512 462M511 331L511 265L722 265L722 331L511 331M514 590L513 523L723 526L723 590L514 590M513 204L511 145L723 146L722 206L513 204Z"  horiz-adv-x="1000" vert-adv-y="1000"  />

    
    <glyph glyph-name="uni70B9" unicode="&#x70B9;" d="M573 813L573 725L949 725L949 660L573 660L573 553L885 553L887 156L113 156L110 553L362 553L362 813L573 813M310 481L310 224L700 226L700 482L310 481M275 123Q267 31 260.50-4Q254-39 250-56L238-107L51-107Q62-73 65-56Q68-39 78.50-4Q89 31 108 125L275 123M473 125Q498 10 504-107L334-107Q331-39 319.50 29.50Q308 98 308 125L473 125M891 123Q901 88 909 62.50Q917 37 927-3Q937-43 947-107L778-107Q765-23 756.50 7.50Q748 38 745 58Q742 78 728 122L747 125L891 123M680 123Q714 8 728-107L565-107Q554-23 549 7.50Q544 38 535.50 77Q527 116 529 125L680 123Z"  horiz-adv-x="1000" vert-adv-y="1000"  />

    
    <glyph glyph-name="uni7406" unicode="&#x7406;" d="M934 783L931 255L744 255L744 149L936 149L936 85L747 85L747-47L950-52L953-113L348-113L347-48L559-47L559 85L368 85L367 149L562 149L561 255L371 255L371 783L934 783M350 788L350 729L276 729L276 402L339 402L337 344L276 344L276-24L343-18L342-81L42-105L42-45L111-39L111 344L53 344L51 402L111 402L111 729L40 729L39 788L350 788M533 330L585 330Q586 419 586 497L533 497L533 330M527 563L580 563L580 730L530 731L527 563M729 731L729 563L780 563L780 731L729 731M733 497Q733 416 732 377Q731 338 734 332L780 335L780 497L733 497Z"  horiz-adv-x="1000" vert-adv-y="1000"  />

    
    <glyph glyph-name="uni751F" unicode="&#x751F;" d="M632 802L632 681L921 681L921 602L626 602L627 347L894 347L894 277L626 277L626-21L935-21L940-91L66-91L66-21L429-21L431 277L112 277L112 347L431 347L433 602L291 602Q273 512 248 419Q73 418 58 418Q90 504 107.50 569.50Q125 635 131.50 672.50Q138 710 150 789L325 789Q325 776 308 681L435 681L434 802L632 802Z"  horiz-adv-x="1000" vert-adv-y="1000"  />

    
    <glyph glyph-name="uni7530" unicode="&#x7530;" d="M898 787L901-100L97-103L95 787L898 787M287 722Q283 554 291 379L406 382L400 722L287 722M596 719L594 379L709 379L709 721L596 719M293 321L293-33L404-33L401 321L293 321M596 317L594-35L706-35L706 318L596 317Z"  horiz-adv-x="1000" vert-adv-y="1000"  />

    
    <glyph glyph-name="uni754C" unicode="&#x754C;" d="M882 791L882 401L104 401L104 791L882 791M325 378L96 207L358 203Q387 228 412 251.50Q437 275 510 344L649 210L936 209Q780 300 703 378L325 378M184 186Q188 96 164.50 20.50Q141-55 90-105L321-105Q369 24 369 186L184 186M631 196L631-103L813-103L813 196L631 196M578 566L578 466L718 466L718 566L578 566M578 728L578 632L718 632L718 728L578 728M278 566L278 466L412 466L412 566L278 566M278 728L278 632L412 632L412 728L278 728Z"  horiz-adv-x="1000" vert-adv-y="1000"  />

    
    <glyph glyph-name="uni76D1" unicode="&#x76D1;" d="M443 813L443 363L276 363L276 813L443 813M226 802L222 377L73 377L76 805L226 802M700 799L696 763L951 764L951 691L683 690Q677 642 666 591Q655 540 648 499Q641 458 624 366L478 366Q496 455 504.50 503.50Q513 552 557 805L700 799M826 645Q862 506 894 371L744 366Q727 501 709 639L826 645M905 328L905-40L962-40L959-99L41-98L41-40L94-40L94 328L905 328M673 261L673-40L718-40L718 261L673 261M262 261L262-40L314-40L314 261L262 261M472 261L472-40L524-40L524 261L472 261Z"  horiz-adv-x="1000" vert-adv-y="1000"  />

    
    <glyph glyph-name="uni76EE" unicode="&#x76EE;" d="M879 782L879-100L117-100L117 782L879 782M325 185L325-31L682-31L682 185L325 185M325 717L325 509L682 509L682 717L325 717M682 440L325 440L325 255L682 255L682 440Z"  horiz-adv-x="1000" vert-adv-y="1000"  />

    
    <glyph glyph-name="uni79D2" unicode="&#x79D2;" d="M777 806L777 524Q777 348 779 314L797 351L954 351Q863 176 787.50 71Q712-34 650-106L446-106Q521-22 566.50 32Q612 86 706 215L620 215L620 806L777 806M437 738Q333 725 322 721L320 582L424 582Q426 555 426 520Q357 520 314 514L314-113L167-113L164 517L49 517L49 582L167 582L170 720Q118 714 57 715L57 779Q224 785 421 807L437 738M603 768Q581 388 554 186L432 186Q475 587 486 768L603 768M909 765Q962 412 962 374L830 374Q816 545 787 765L909 765M348-113L343 472L418 474L426-113L348-113M140 472L128-112L53-112Q53-28 59 141Q65 310 69 472L140 472Z"  horiz-adv-x="1000" vert-adv-y="1000"  />

    
    <glyph glyph-name="uni7A0B" unicode="&#x7A0B;" d="M937 794L429 794L429 455L937 455L937 794M413 809L420 737Q356 728 312 721L312 578L417 578L417 515L312 515L312-108L151-108L151 515L48 515L48 578L151 578L151 716Q99 712 43 714L43 782Q222 779 399 805L413 809M433 408L433 347L595 347L595 182L431 182L431 116L595 116L595-43L422-43L422-107L966-107L966-43L777-43L777 116L947 116L947 182L777 182L777 347L951 347L951 408L433 408M128 482Q127 223 119-108L44-108Q53 159 55.50 284Q58 409 56 482L128 482M333 481L400 481Q410 182 410-108L342-108Q346 179 333 481M601 741L770 741L770 522L601 522L601 741Z"  horiz-adv-x="1000" vert-adv-y="1000"  />

    
    <glyph glyph-name="uni7AD9" unicode="&#x7AD9;" d="M570 813Q570 810 751 812L751 677L947 677L945 609L751 609L751 404L933 404L933-102L433-102L433 404L570 404L570 813M233-22Q259 299 267 623L408 623Q398 304 375-13L414-11L414-77L44-101L44-35L233-22M194 623Q215 315 219 7L83 7Q80 315 59 623L194 623M611 339L611-39L751-39L751 339L611 339M305 809Q317 769 325 729L437 729L437 665L43 665L43 729L147 729Q139 769 127 809L305 809Z"  horiz-adv-x="1000" vert-adv-y="1000"  />

    
    <glyph glyph-name="uni7BA1" unicode="&#x7BA1;" d="M876 395L876 181L317 181L317 132L893 132L893-108L131-108L131 395L876 395M331 611L266 710L231 615L39 615Q81 703 115 811L286 811L278 773L502 773L502 710L441 710L491 618Q535 717 556 811L726 811L718 770L959 770L959 708L896 708L910 615L764 615L750 708L704 708L670 611L331 611M605 594L605 551L942 551L942 423L759 423L759 487L269 487L269 423L75 423L75 551L404 551L404 594L605 594M317 69L317-53L717-53L717 69L317 69M317 337L317 240L680 240L680 337L317 337Z"  horiz-adv-x="1000" vert-adv-y="1000"  />

    
    <glyph glyph-name="uni81F3" unicode="&#x81F3;" d="M930 778L930 714L479 714Q474 685 429 597.50Q384 510 342 454L690 453Q654 522 589 655L776 655Q840 544 918 384Q574 386 127 386L127 453Q182 539 209.50 580Q237 621 286 714L96 714L96 778L930 778M607 358L607 215L906 215L906 151L610 151L610-31L945-31L947-95L63-95L63-31L414-31L412 151L101 151L101 215L417 215L417 356L428 361L607 358Z"  horiz-adv-x="1000" vert-adv-y="1000"  />

    
    <glyph glyph-name="uni897F" unicode="&#x897F;" d="M940 784L940 717L700 717L700 591L913 588L913-87L88-87L90 588L297 588L297 719L70 719L70 784L940 784M468 719L468 586L525 586L525 719L468 719M263 524L263-21Q497-28 734-21L734 98L526 95L530 516L471 516Q467 370 439 97L281 97Q317 325 326 524L263 524M675 521L674 160L734 160L734 521L675 521Z"  horiz-adv-x="1000" vert-adv-y="1000"  />

    
    <glyph glyph-name="uni89C6" unicode="&#x89C6;" d="M830 181L830-38L883-38L895 127L948 125Q947 21 946-29Q945-79 945-113L688-111L688 69Q651-33 600-111L387-111Q455-33 519 82Q583 197 598 372L598 705L745 704Q747 357 742.50 289.50Q738 222 729 181L830 181M927 215L773 215L773 730L557 730L557 209L417 207L417 794L927 793L927 215M346 667L310 447L373 450Q380 387 383 344Q386 301 406 110L329 108Q322 222 302 422L284 320L287-107L131-107L131 179L44 179L182 607L41 607L41 667L346 667M317 678L151 678Q138 740 114 810L295 810L317 678Z"  horiz-adv-x="1000" vert-adv-y="1000"  />

    
    <glyph glyph-name="uni8BD5" unicode="&#x8BD5;" d="M799 689L941 689L938 629L803 621Q816 329 876-21L953 53L956-36L883-107L712-107Q701-75 695-30Q689 15 679.50 85Q670 155 659 229Q648 303 642.50 357.50Q637 412 634 459Q631 506 622 615L321 618L321 686L620 689L622 801L790 801L799 689M278 665L282 2L317 2L317-94L102-94L102 558L38 558L38 665L278 665M614 475L612 407L557 407L559-2L635-2L635-83L339-83L339-2L402-2L402 407L338 407L338 478L614 475M271 698L61 692L61 800L269 800L271 698M923 801Q935 763 938 709L819 706Q816 755 824 801L923 801Z"  horiz-adv-x="1000" vert-adv-y="1000"  />

    
    <glyph glyph-name="uni8D28" unicode="&#x8D28;" d="M909 810Q913 803 911.50 797.50Q910 792 913 786.50Q916 781 916 774Q916 767 922 748Q904 744 700 734L700 619L935 619L933 549L700 549L700 468L916 468L916 56L795 56L888-40L950-107L736-107L638 5Q602-58 550-112L306-112Q401-32 453 32Q463 43 471 55L315 52L315 468L509 468L509 549L268 549L268 387Q268 194 263.50 89Q259-16 245-107L52-107Q72 5 78 167Q84 329 84 773Q267 773 561.50 789Q856 805 898 810L909 810M483 73Q510 120 518 171Q531 246 531 357L702 357Q704 194 673 95L751 95L751 400L483 400L483 73M268 614L514 614L517 724Q408 719 268 713L268 614Z"  horiz-adv-x="1000" vert-adv-y="1000"  />

    
    <glyph glyph-name="uni8DEF" unicode="&#x8DEF;" d="M66 792L75 414L206 414L212-14L182-14Q181-14 181 362L86 362L80-30L46-30L46-96L435-75L435-9L361-12L358 208L418 208L418 268L355 268L358 414L416 414L418 792L66 792M941 315L939-100L460-102L452 318L941 315M684 811L672 776L950 777L950 711Q888 590 808 495Q878 428 970 341L750 341L700 396L645 340L446 339L586 493Q449 620 449 625L661 628L689 586L771 709L658 709L636 649L440 649Q487 734 520 811L684 811M646 254L646-35L755-35L755 254L646 254M267 729L267 489L218 489L218 729L267 729Z"  horiz-adv-x="1000" vert-adv-y="1000"  />

    
    <glyph glyph-name="uni8FDB" unicode="&#x8FDB;" d="M857 809L857 697L950 697L950 628L859 628L862 403L950 403L950 339L862 339L865 26L692 26L692 339L587 339Q580 121 539 20L344 22Q417 170 427 339L346 339L346 403L427 403L432 628L357 628L357 697L432 697L432 809L591 809L591 697L692 697L692 809L857 809M293 570Q291 470 293.50 264.50Q296 59 305 28Q319-8 348.50-12Q378-16 637.50-14.50Q897-13 919-13L971-13L971-106Q306-111 269.50-88Q233-65 211-37L191-16Q128-74 52-111L43-106L9-41Q85 3 99.50 32.50Q114 62 114 166L114 496L54 496L54 570L293 570M308 607Q131 610 126 612L83 813L265 815L308 607M591 628L591 403L692 403L692 628L591 628Z"  horiz-adv-x="1000" vert-adv-y="1000"  />

    
    <glyph glyph-name="uni9053" unicode="&#x9053;" d="M564 812L591 743L666 743L691 812L868 812L846 742L945 742L943 673L701 672L681 602L911 602L911 48L345 48Q347 539 346 600L494 600Q502 608 521 672L308 674L308 743L393 743L370 811L564 812M40 574L284 574L284 129Q284 95 291 62Q296 39 312 21Q325 10 341 5Q370-2 400-2L961-2L961-100L374-100Q337-100 301-93Q272-87 247-72Q229-60 216-44Q197-19 190-4L28-109L28-8L100 41L100 510L40 510L40 574M70 812L243 812Q274 716 286 613L111 613Q98 715 70 812M515 215L515 117L728 118L728 215L515 215M515 536L515 440L728 440L728 539L515 536M515 375L515 281L728 281L728 377L515 375Z"  horiz-adv-x="1000" vert-adv-y="1000"  />

    
    <glyph glyph-name="uni90E8" unicode="&#x90E8;" d="M949 794Q949 755 947.50 687Q946 619 921 442Q968 214 945-10L830-10L750 22L750-108L582-108L582 797L949 794M68 330L538 330L538-100Q298-103 68-104L68 330M519 677Q499 554 474 445L572 445L572 382L38 382L38 445L319 445Q329 486 333 508.50Q337 531 342 564.50Q347 598 350.50 620.50Q354 643 361 677L519 677M212 259L212-39L382-39L380 259L212 259M387 814L398 770L550 770L550 712L48 709L48 770L205 770L197 814L387 814M236 677Q269 578 292 468L127 468Q120 491 117.50 505Q115 519 104 559.50Q93 600 88.50 616.50Q84 633 71 677L236 677M750 733L750 96L807 79Q820 257 784 428Q809 581 810 733L750 733Z"  horiz-adv-x="1000" vert-adv-y="1000"  />

    
    <glyph glyph-name="uni91CF" unicode="&#x91CF;" d="M887 407L890 116Q596 118 587 117L592 68L905 68L908 13L590 7L592-39L949-39L956-102L42-105L45-50L401-44L401 5Q237 0 81 6L80 63L404 65L404 116L93 116L99 404Q433 404 887 407M890 791Q892 670 890 536L101 533Q93 660 104 788L596 791L890 791M502 500L938 496L933 442L50 442L48 496L502 500M289 634Q286 612 291 591Q666 591 708 596L708 636L289 634M286 733L286 694L708 694L708 736Q296 736 286 733M283 346L283 288L399 291L399 346L283 346M283 228L283 172L399 172L397 228L283 228M587 344L588 288L702 291L702 346Q602 346 587 344M590 225Q590 197 592 172Q649 170 705 175L702 228L590 225Z"  horiz-adv-x="1000" vert-adv-y="1000"  />

    
    <glyph glyph-name="uni9690" unicode="&#x9690;" d="M483 808L631 809L618 771L855 771L858 715L813 593L927 593L926 235L402 232L402 299L797 298L797 380L413 380L413 447L795 447L795 528L403 526L405 594L647 593Q674 654 692 710L596 710L556 617L405 617Q457 719 483 808M664 207L762 209Q781 125 791 19L691 18Q683 112 664 207M397 201L503 200Q494 48 476-104L365-104Q390 40 397 201M522 203L642 203L642-46L777-46L788 1L831 0L814-106L521-106L522 203M825 204L934 205Q947 77 962-106L852-107Q842 53 825 204M52 808L385 807Q380 602 352 457Q407 221 363 11L244 12L198 52L197-106L52-106L52 808M252 741L203 741L203 123L236 91Q264 235 222 457Q250 621 252 741Z"  horiz-adv-x="1000" vert-adv-y="1000"  />

    
    <glyph glyph-name="uni96A7" unicode="&#x96A7;" d="M361 806Q361 759 358 715.50Q355 672 330 450Q356 234 353.50 162Q351 90 342 16L243 16L194 47L191-109L58-109Q62 344 49 803L162 806L361 806M966 557Q943 538 917 522Q947 260 964 8L859 8Q853 141 842 264Q832 374 820 476Q809 472 798 468Q806 417 810 366Q817 182 795 8L655 7L552 52L552 112L654 70Q657 121 658 174Q601 138 539 124L534 194Q599 223 653 257L656 259Q654 310 649 361Q597 329 540 306L540 389Q591 406 640 438Q633 487 624 536Q582 514 535 497L535 571Q630 608 695 669L530 669L530 728L599 728Q592 771 568 807L709 813Q723 771 736 729L761 729Q769 746 776 764Q786 788 791 809L928 810Q916 770 899 730L959 731L959 670L797 669Q781 651 763 633Q777 586 787 537L787 536Q865 567 927 611L966 557M517 204Q517 100 517.50 83.50Q518 67 524 40Q531-2 595-12Q659-22 954-10L952-108L878-108Q856-108 710-109.50Q564-111 517.50-83Q471-55 448-1L342-106L301-31L339 2L384 42L384 508L359 507L357 560L380 560Q429 558 517 558L517 204M500 803Q511 717 517 604L387 604Q385 684 383 714Q381 744 375 800L500 803M197 738Q196 738 197 103L217 85Q230 225 226 276Q222 327 210 427Q231 604 234 738L197 738Z"  horiz-adv-x="1000" vert-adv-y="1000"  />

    
    <glyph glyph-name="uni9875" unicode="&#x9875;" d="M937 793L937 727L603 727Q595 676 581 624L888 625L888 120L700 120L701 559L312 560L311 120L124 120L122 619L369 619Q385 677 394 725L73 726L74 792L876 793L937 793M598 512L598 363Q598 322 595.50 258.50Q593 195 573 138L662 140Q774 43 923-101L684-104Q595-8 530 54Q466-29 374-102L81-107Q218-20 282.50 37.50Q347 95 372.50 133Q398 171 405 217Q412 263 411 512L598 512Z"  horiz-adv-x="1000" vert-adv-y="1000"  />

    
    <glyph glyph-name="uni9879" unicode="&#x9879;" d="M361 795L361 734L296 734L298-11L368-2L373-66L45-112L43-46L111-37L116 734L42 734L41 795L361 795M947 726L751 727L731 645L931 642L936 130L779 129Q778 236 778 579L538 578L534 126L376 126L380 648L552 647L570 726L380 727L381 791L947 791L947 726M824 113Q879 9 930-96L759-96Q729-29 692 39Q657-28 602-101L385-103Q469-19 513 44.50Q557 108 572.50 170.50Q588 233 585 383Q582 533 582 546L740 546Q751 192 717 113L824 113Z"  horiz-adv-x="1000" vert-adv-y="1000"  />

    
    <glyph glyph-name="uni9891" unicode="&#x9891;" d="M404 795L404 691L481 691L481 639L407 637L404 504L477 504L477 441L370 437L364 258Q386 319 397 399L495 397L495 381Q495 373 475 277Q455 181 395.50 73Q336-35 278-105L91-105Q218 24 286 133L217 133L226 438L36 438L36 504L80 504L80 792L208 789L208 504L255 504L258 798L404 795M950 792L951 727L806 727L779 639L945 639L952 130L820 127L811 577L637 577L637 133L505 133Q504 362 507 635L622 640L651 728L477 727L484 792L950 792M484-102Q582 21 608 63.50Q634 106 651 179Q668 252 667 544L790 541Q793 220 785 112L859 114Q899 7 942-96Q883-99 853-99L802-99Q771-27 748 32L678-102L484-102M199 393Q196 272 166 85L53 85Q77 254 86 393L199 393Z"  horiz-adv-x="1000" vert-adv-y="1000"  />

    
    <glyph glyph-name="uni9996" unicode="&#x9996;" d="M427 736L559 736L583 807L805 807L781 733L944 730L944 664L578 664L548 557L883 559L883-102L115-105L115 560L339 560L371 661L60 661L60 732L222 733L195 812L398 810L427 736M306 102L306-38L698-36L698 104L306 102M306 307L306 167L698 173L698 307L306 307M306 495L306 375L698 375L698 496L306 495Z"  horiz-adv-x="1000" vert-adv-y="1000"  />

    
    <glyph glyph-name="uni9A8C" unicode="&#x9A8C;" d="M400 799L377 383L405 383L411-112L237-112L99-55L103 13L237-31L237 311L43 311L59 699L197 699L186 377L229 377L253 740L39 742L39 801L400 799M788 809L871 681L976 521L801 521L691 707L684 713Q629 611 576 521L404 521Q511 672 579 811L788 809M773-46Q798 155 804 226Q810 297 818 422Q894 419 916 419L944 419Q932 243 894-46L961-46L961-104Q694-107 425-102L425-46L773-46M559 414Q582 260 591 155Q600 50 605-5L473-5Q466 138 458.50 221Q451 304 445 359Q439 414 437 414L559 414M726 415Q747 238 756.50 111Q766-16 768-16L645-16Q635 193 602 415L726 415M959 443L427 443L427 496L959 496L959 443M213 197L213 134L35 134L35 197L213 197Z"  horiz-adv-x="1000" vert-adv-y="1000"  />

    
    <glyph glyph-name="uniFF08" unicode="&#xFF08;" d="M619 810L820 810Q768 700 742 581Q716 462 716 345Q716 91 820-110L620-110Q571 2 549 112Q527 214 527 345Q527 467 550 587Q573 707 619 810Z"  horiz-adv-x="1000" vert-adv-y="1000"  />

    
    <glyph glyph-name="uniFF09" unicode="&#xFF09;" d="M451 112Q429 2 380-110L180-110Q284 91 284 345Q284 462 258 581Q232 700 180 810L381 810Q427 707 450 587Q473 467 473 345Q473 221 451 112Z"  horiz-adv-x="1000" vert-adv-y="1000"  />

    

  </font>
</defs>
</svg>
